<?xml version="1.0" standalone="no"?>
<!DOCTYPE svg PUBLIC "-//W3C//DTD SVG 20010904//EN"
 "http://www.w3.org/TR/2001/REC-SVG-20010904/DTD/svg10.dtd">
<svg version="1.0" xmlns="http://www.w3.org/2000/svg"
 width="100.000000pt" height="100.000000pt" viewBox="0 0 100.000000 100.000000"
 preserveAspectRatio="xMidYMid meet">

<g transform="translate(0.000000,100.000000) scale(0.100000,-0.100000)"
fill="#ffffff" stroke="none">
<path d="M230 839 c-59 -27 -87 -53 -117 -114 -21 -41 -25 -59 -20 -105 3 -31
13 -72 22 -90 21 -41 366 -390 386 -390 19 0 362 347 385 390 26 50 25 152 -3
205 -69 130 -228 162 -348 71 l-35 -27 -35 27 c-73 56 -159 68 -235 33z m141
-29 c20 -6 58 -29 84 -52 l47 -41 29 31 c37 40 75 59 128 68 91 14 193 -60
207 -151 13 -91 -1 -113 -192 -305 l-174 -175 -174 175 c-191 192 -205 215
-192 304 9 56 53 111 111 137 46 21 75 23 126 9z"/>
</g>
</svg>
